<svg width="23" height="21" viewBox="0 0 23 21" fill="none" xmlns="http://www.w3.org/2000/svg">
<path d="M11.5 20.7012C10.7583 20.0434 9.9199 19.3592 9.03326 18.6313H9.02176C5.89951 16.0783 2.36097 13.1895 0.798124 9.72797C0.284671 8.62596 0.0125658 7.42697 1.31168e-05 6.21128C-0.00341594 4.54319 0.665611 2.94412 1.8559 1.77547C3.04619 0.606823 4.65727 -0.0327533 6.32501 0.00129292C7.68273 0.00343743 9.01122 0.395835 10.1522 1.13174C10.6536 1.45715 11.1072 1.85078 11.5 2.30129C11.895 1.85255 12.3488 1.45915 12.8489 1.13174C13.9894 0.39569 15.3176 0.00326924 16.675 0.00129292C18.3427 -0.0327533 19.9538 0.606823 21.1441 1.77547C22.3344 2.94412 23.0034 4.54319 23 6.21128C22.9883 7.42891 22.7161 8.62995 22.2019 9.73372C20.639 13.1952 17.1016 16.0829 13.9794 18.6313L13.9679 18.6404C13.0801 19.3638 12.2429 20.048 11.5012 20.7104L11.5 20.7012ZM6.32501 2.30129C5.2538 2.28788 4.2206 2.69786 3.45002 3.44209C2.70756 4.17137 2.29261 5.17058 2.29992 6.21128C2.31305 7.09735 2.51372 7.9706 2.88882 8.77347C3.62655 10.267 4.62199 11.6186 5.82936 12.7663C6.96901 13.9163 8.28001 15.0295 9.4139 15.9656C9.72785 16.2243 10.0476 16.4854 10.3673 16.7464L10.5685 16.9109C10.8756 17.1616 11.193 17.4215 11.5 17.6768L11.5149 17.663L11.5218 17.6572H11.5287L11.5391 17.6492H11.5448H11.5506L11.5713 17.6319L11.6184 17.594L11.6265 17.5871L11.6391 17.5779H11.646L11.6564 17.5687L12.42 16.9419L12.6201 16.7775C12.9432 16.5141 13.2629 16.2531 13.5769 15.9943C14.7108 15.0582 16.0229 13.9462 17.1626 12.7904C18.3701 11.6434 19.3656 10.2921 20.1031 8.79877C20.485 7.98895 20.6886 7.10656 20.7 6.21128C20.7048 5.1738 20.29 4.17842 19.55 3.45129C18.7809 2.70369 17.7475 2.29034 16.675 2.30129C15.3662 2.29017 14.115 2.83876 13.2365 3.80893L11.5 5.80993L9.7635 3.80893C8.88498 2.83876 7.6338 2.29017 6.32501 2.30129Z" fill="#757579"/>
</svg>
