<svg width="114" height="29" viewBox="0 0 114 29" fill="none" xmlns="http://www.w3.org/2000/svg">
<path d="M30.29 3.92C29.4967 3.96667 28.925 4.06 28.575 4.2C28.225 4.34 27.98 4.60833 27.84 5.005C27.7233 5.40167 27.665 6.04333 27.665 6.93V24.29C27.665 25.1767 27.7233 25.8183 27.84 26.215C27.98 26.6117 28.225 26.88 28.575 27.02C28.9483 27.16 29.52 27.2533 30.29 27.3V28C29.0067 27.93 27.175 27.895 24.795 27.895C22.2983 27.895 20.455 27.93 19.265 28V27.3C20.105 27.2533 20.7117 27.16 21.085 27.02C21.4817 26.88 21.75 26.6117 21.89 26.215C22.03 25.8183 22.1 25.1767 22.1 24.29V5.985L13.665 28.035H13.105L3.655 5.495V22.26C3.655 23.6367 3.725 24.6517 3.865 25.305C4.005 25.935 4.30833 26.4017 4.775 26.705C5.24167 26.985 6 27.1833 7.05 27.3V28C6.14 27.93 4.88 27.895 3.27 27.895C1.98667 27.895 0.971667 27.93 0.225 28V27.3C0.995 27.1833 1.555 26.985 1.905 26.705C2.27833 26.425 2.52333 25.9817 2.64 25.375C2.78 24.7683 2.85 23.87 2.85 22.68V6.93C2.85 6.04333 2.78 5.40167 2.64 5.005C2.52333 4.60833 2.27833 4.34 1.905 4.2C1.555 4.06 0.995 3.96667 0.225 3.92V3.22C0.971667 3.29 1.98667 3.325 3.27 3.325C5.41667 3.325 7.26 3.29 8.8 3.22L15.87 20.265L22.31 3.325H24.795C27.175 3.325 29.0067 3.29 30.29 3.22V3.92ZM36.8265 0.874999C37.8065 0.874999 38.5765 1.12 39.1365 1.61C39.7199 2.07667 40.0115 2.73 40.0115 3.57C40.0115 4.41 39.7199 5.075 39.1365 5.565C38.5765 6.03167 37.8065 6.265 36.8265 6.265C35.8465 6.265 35.0649 6.03167 34.4815 5.565C33.9215 5.075 33.6415 4.41 33.6415 3.57C33.6415 2.73 33.9215 2.07667 34.4815 1.61C35.0649 1.12 35.8465 0.874999 36.8265 0.874999ZM39.5565 24.745C39.5565 25.7017 39.7199 26.3667 40.0465 26.74C40.3965 27.09 40.9799 27.265 41.7965 27.265V28C39.4632 27.9067 37.9115 27.86 37.1415 27.86C36.4182 27.86 34.7965 27.9067 32.2765 28V27.265C33.1165 27.265 33.6999 27.09 34.0265 26.74C34.3532 26.3667 34.5165 25.7017 34.5165 24.745V13.72C34.5165 12.6467 34.3532 11.865 34.0265 11.375C33.6999 10.885 33.1165 10.64 32.2765 10.64V9.905C33.0232 9.975 33.7465 10.01 34.4465 10.01C36.5232 10.01 38.2265 9.84667 39.5565 9.52V24.745ZM55.3566 9.415C56.4066 9.415 57.1999 9.73 57.7366 10.36C58.2732 10.99 58.5416 11.7483 58.5416 12.635C58.5416 13.4983 58.2849 14.21 57.7716 14.77C57.2816 15.3067 56.6282 15.575 55.8116 15.575C55.0182 15.575 54.3882 15.3767 53.9216 14.98C53.4549 14.56 53.2216 14.0117 53.2216 13.335C53.2216 12.215 53.7349 11.305 54.7616 10.605C54.6682 10.5817 54.5282 10.57 54.3416 10.57C54.1082 10.57 53.9216 10.5933 53.7816 10.64C52.8949 10.78 52.1366 11.3167 51.5066 12.25C50.8999 13.1833 50.5966 14.14 50.5966 15.12V24.395C50.5966 25.4683 50.8532 26.215 51.3666 26.635C51.9032 27.055 52.7432 27.265 53.8866 27.265V28C53.5599 28 53.2916 27.9883 53.0816 27.965C50.7016 27.895 49.1149 27.86 48.3216 27.86C47.6916 27.86 46.2566 27.895 44.0166 27.965C43.8299 27.9883 43.5966 28 43.3166 28V27.265C44.1566 27.265 44.7399 27.09 45.0666 26.74C45.3932 26.3667 45.5566 25.7017 45.5566 24.745V13.72C45.5566 12.6467 45.3932 11.865 45.0666 11.375C44.7399 10.885 44.1566 10.64 43.3166 10.64V9.905C44.0632 9.975 44.7866 10.01 45.4866 10.01C47.5632 10.01 49.2666 9.84667 50.5966 9.52V12.775C51.0399 11.7717 51.6816 10.9667 52.5216 10.36C53.3616 9.73 54.3066 9.415 55.3566 9.415ZM71.6945 9.415C72.7445 9.415 73.5378 9.73 74.0745 10.36C74.6111 10.99 74.8795 11.7483 74.8795 12.635C74.8795 13.4983 74.6228 14.21 74.1095 14.77C73.6195 15.3067 72.9661 15.575 72.1495 15.575C71.3561 15.575 70.7261 15.3767 70.2595 14.98C69.7928 14.56 69.5595 14.0117 69.5595 13.335C69.5595 12.215 70.0728 11.305 71.0995 10.605C71.0061 10.5817 70.8661 10.57 70.6795 10.57C70.4461 10.57 70.2595 10.5933 70.1195 10.64C69.2328 10.78 68.4745 11.3167 67.8445 12.25C67.2378 13.1833 66.9345 14.14 66.9345 15.12V24.395C66.9345 25.4683 67.1911 26.215 67.7045 26.635C68.2411 27.055 69.0811 27.265 70.2245 27.265V28C69.8978 28 69.6295 27.9883 69.4195 27.965C67.0395 27.895 65.4528 27.86 64.6595 27.86C64.0295 27.86 62.5945 27.895 60.3545 27.965C60.1678 27.9883 59.9345 28 59.6545 28V27.265C60.4945 27.265 61.0778 27.09 61.4045 26.74C61.7311 26.3667 61.8945 25.7017 61.8945 24.745V13.72C61.8945 12.6467 61.7311 11.865 61.4045 11.375C61.0778 10.885 60.4945 10.64 59.6545 10.64V9.905C60.4011 9.975 61.1245 10.01 61.8245 10.01C63.9011 10.01 65.6045 9.84667 66.9345 9.52V12.775C67.3778 11.7717 68.0195 10.9667 68.8595 10.36C69.6995 9.73 70.6445 9.415 71.6945 9.415ZM84.5438 9.415C87.2272 9.415 89.3272 10.185 90.8438 11.725C92.3605 13.2417 93.1188 15.6567 93.1188 18.97C93.1188 22.2833 92.3605 24.6983 90.8438 26.215C89.3272 27.7317 87.2272 28.49 84.5438 28.49C81.8838 28.49 79.7838 27.7317 78.2438 26.215C76.7272 24.6983 75.9688 22.2833 75.9688 18.97C75.9688 15.6567 76.7272 13.2417 78.2438 11.725C79.7838 10.185 81.8838 9.415 84.5438 9.415ZM84.5438 10.115C83.5405 10.115 82.7355 10.85 82.1288 12.32C81.5455 13.7667 81.2538 15.9833 81.2538 18.97C81.2538 21.9567 81.5455 24.1733 82.1288 25.62C82.7355 27.0667 83.5405 27.79 84.5438 27.79C85.5705 27.79 86.3755 27.0783 86.9588 25.655C87.5422 24.2083 87.8338 21.98 87.8338 18.97C87.8338 15.96 87.5305 13.7317 86.9238 12.285C86.3405 10.8383 85.5472 10.115 84.5438 10.115ZM107.309 9.415C109.199 9.415 110.727 10.1967 111.894 11.76C113.061 13.3 113.644 15.54 113.644 18.48C113.644 21.91 112.897 24.4417 111.404 26.075C109.911 27.685 107.986 28.49 105.629 28.49C104.019 28.49 102.712 28.0817 101.709 27.265C100.869 27.195 100.029 27.2883 99.1889 27.545C98.3489 27.8017 97.6839 28.14 97.1939 28.56L96.6689 28.245C96.8322 27.6617 96.9139 27.0083 96.9139 26.285V4.83C96.9139 3.75667 96.7389 2.975 96.3889 2.485C96.0622 1.995 95.4905 1.75 94.6739 1.75V1.015C95.3972 1.085 96.1205 1.12 96.8439 1.12C98.8739 1.12 100.577 0.956666 101.954 0.629998V12.74C102.444 11.6667 103.156 10.85 104.089 10.29C105.022 9.70667 106.096 9.415 107.309 9.415ZM104.544 27.755C105.827 27.755 106.784 27.0317 107.414 25.585C108.044 24.1383 108.359 21.9333 108.359 18.97C108.359 16.1 108.091 14.0467 107.554 12.81C107.017 11.55 106.247 10.92 105.244 10.92C104.497 10.92 103.809 11.2 103.179 11.76C102.572 12.2967 102.164 13.0317 101.954 13.965V26.81C102.724 27.44 103.587 27.755 104.544 27.755Z" fill="black"/>
</svg>
